<svg xmlns="http://www.w3.org/2000/svg" xmlns:xlink="http://www.w3.org/1999/xlink" width="2000" zoomAndPan="magnify" viewBox="0 0 1500 1499.999933" height="2000" preserveAspectRatio="xMidYMid meet" version="1.0"><defs><g/><clipPath id="adf49a4345"><path d="M 131.644531 419.121094 L 434 419.121094 L 434 719 L 131.644531 719 Z M 131.644531 419.121094 " clip-rule="nonzero"/></clipPath><clipPath id="ba586665dc"><path d="M 1097 690 L 1399.894531 690 L 1399.894531 989.121094 L 1097 989.121094 Z M 1097 690 " clip-rule="nonzero"/></clipPath><clipPath id="21ac90c2dc"><path d="M 99.761719 466.144531 L 401 466.144531 L 401 764 L 99.761719 764 Z M 99.761719 466.144531 " clip-rule="nonzero"/></clipPath><clipPath id="ee36b3397f"><path d="M 1062 736 L 1363.511719 736 L 1363.511719 1033.894531 L 1062 1033.894531 Z M 1062 736 " clip-rule="nonzero"/></clipPath><clipPath id="c67dceec0e"><rect x="0" width="982" y="0" height="207"/></clipPath></defs><g clip-path="url(#adf49a4345)"><path fill="#70020f" d="M 144.109375 718.085938 L 131.644531 718.085938 L 131.644531 415.742188 L 433.984375 415.742188 L 433.984375 428.210938 L 144.109375 428.210938 Z M 144.109375 718.085938 " fill-opacity="1" fill-rule="nonzero"/></g><g clip-path="url(#ba586665dc)"><path fill="#70020f" d="M 1400.234375 992.375 L 1097.890625 992.375 L 1097.890625 979.90625 L 1387.765625 979.90625 L 1387.765625 690.035156 L 1400.234375 690.035156 Z M 1400.234375 992.375 " fill-opacity="1" fill-rule="nonzero"/></g><g clip-path="url(#21ac90c2dc)"><path fill="#70020f" d="M 112.179688 763.972656 L 99.761719 763.972656 L 99.761719 462.78125 L 400.953125 462.78125 L 400.953125 475.203125 L 112.179688 475.203125 Z M 112.179688 763.972656 " fill-opacity="1" fill-rule="nonzero"/></g><g clip-path="url(#ee36b3397f)"><path fill="#70020f" d="M 1363.523438 1037.21875 L 1062.332031 1037.21875 L 1062.332031 1024.796875 L 1351.101562 1024.796875 L 1351.101562 736.027344 L 1363.523438 736.027344 Z M 1363.523438 1037.21875 " fill-opacity="1" fill-rule="nonzero"/></g><g transform="matrix(1, 0, 0, 1, 268, 566)"><g clip-path="url(#c67dceec0e)"><g fill="#70020f" fill-opacity="1"><g transform="translate(1.368281, 164.393338)"><g><path d="M 114.265625 -17.09375 L 114.265625 0 L 25.984375 0 L 25.984375 -115.09375 L 43.734375 -115.09375 L 43.734375 -17.09375 Z M 114.265625 -17.09375 "/></g></g></g><g fill="#70020f" fill-opacity="1"><g transform="translate(153.626881, 164.393338)"><g><path d="M 25.984375 -115.09375 L 115.09375 -115.09375 L 115.09375 -98 L 43.734375 -98 L 43.734375 -67.578125 L 106.046875 -67.578125 L 106.046875 -50.484375 L 43.734375 -50.484375 L 43.734375 -17.09375 L 115.09375 -17.09375 L 115.09375 0 L 25.984375 0 Z M 68.0625 -123.984375 L 62.46875 -132.359375 L 85.984375 -152.921875 L 96.671875 -139.4375 Z M 68.0625 -123.984375 "/></g></g></g><g fill="#70020f" fill-opacity="1"><g transform="translate(309.502838, 164.393338)"><g><path d="M 87.640625 -115.09375 C 94.210938 -115.09375 100.238281 -113.53125 105.71875 -110.40625 C 111.195312 -107.28125 115.609375 -103.0625 118.953125 -97.75 C 122.296875 -92.4375 123.96875 -86.4375 123.96875 -79.75 C 123.96875 -72.84375 122.1875 -66.617188 118.625 -61.078125 C 115.0625 -55.546875 110.347656 -51.132812 104.484375 -47.84375 C 98.617188 -44.5625 92.179688 -42.921875 85.171875 -42.921875 L 43.734375 -42.921875 L 43.734375 0 L 25.984375 0 L 25.984375 -115.09375 Z M 84.015625 -60.015625 C 87.859375 -60.015625 91.394531 -60.914062 94.625 -62.71875 C 97.851562 -64.53125 100.425781 -66.914062 102.34375 -69.875 C 104.269531 -72.832031 105.234375 -76.125 105.234375 -79.75 C 105.234375 -83.144531 104.269531 -86.210938 102.34375 -88.953125 C 100.425781 -91.691406 97.851562 -93.882812 94.625 -95.53125 C 91.394531 -97.175781 87.859375 -98 84.015625 -98 L 43.734375 -98 L 43.734375 -60.015625 Z M 84.015625 -60.015625 "/></g></g></g><g fill="#70020f" fill-opacity="1"><g transform="translate(469.982742, 164.393338)"><g><path d="M 149.125 -57.546875 C 149.125 -49.210938 147.503906 -41.457031 144.265625 -34.28125 C 141.035156 -27.101562 136.460938 -20.828125 130.546875 -15.453125 C 124.628906 -10.085938 117.671875 -5.894531 109.671875 -2.875 C 101.671875 0.132812 92.847656 1.640625 83.203125 1.640625 C 73.554688 1.640625 64.703125 0.132812 56.640625 -2.875 C 48.585938 -5.894531 41.628906 -10.085938 35.765625 -15.453125 C 29.898438 -20.828125 25.375 -27.101562 22.1875 -34.28125 C 19.007812 -41.457031 17.421875 -49.210938 17.421875 -57.546875 C 17.421875 -65.878906 19.007812 -73.632812 22.1875 -80.8125 C 25.375 -87.988281 29.898438 -94.265625 35.765625 -99.640625 C 41.628906 -105.015625 48.585938 -109.207031 56.640625 -112.21875 C 64.703125 -115.226562 73.554688 -116.734375 83.203125 -116.734375 C 92.847656 -116.734375 101.671875 -115.226562 109.671875 -112.21875 C 117.671875 -109.207031 124.628906 -105.015625 130.546875 -99.640625 C 136.460938 -94.265625 141.035156 -87.988281 144.265625 -80.8125 C 147.503906 -73.632812 149.125 -65.878906 149.125 -57.546875 Z M 131.046875 -57.546875 C 131.046875 -65.546875 128.988281 -72.695312 124.875 -79 C 120.769531 -85.300781 115.125 -90.285156 107.9375 -93.953125 C 100.757812 -97.628906 92.515625 -99.46875 83.203125 -99.46875 C 73.773438 -99.46875 65.46875 -97.628906 58.28125 -93.953125 C 51.101562 -90.285156 45.515625 -85.300781 41.515625 -79 C 37.515625 -72.695312 35.515625 -65.546875 35.515625 -57.546875 C 35.515625 -49.546875 37.515625 -42.394531 41.515625 -36.09375 C 45.515625 -29.789062 51.101562 -24.800781 58.28125 -21.125 C 65.46875 -17.457031 73.773438 -15.625 83.203125 -15.625 C 92.515625 -15.625 100.757812 -17.457031 107.9375 -21.125 C 115.125 -24.800781 120.769531 -29.816406 124.875 -36.171875 C 128.988281 -42.523438 131.046875 -49.648438 131.046875 -57.546875 Z M 131.046875 -57.546875 "/></g></g></g><g fill="#70020f" fill-opacity="1"><g transform="translate(654.797626, 164.393338)"><g><path d="M 12 0 L 60.671875 -59.03125 L 12.828125 -115.09375 L 36.5 -115.09375 L 74.15625 -69.546875 L 109.015625 -115.09375 L 131.703125 -115.09375 L 84.515625 -57.21875 L 133.34375 0 L 109.671875 0 L 71.359375 -46.203125 L 34.53125 0 Z M 12 0 "/></g></g></g><g fill="#70020f" fill-opacity="1"><g transform="translate(818.566044, 164.393338)"><g><path d="M 134.171875 -115.09375 L 82.546875 -46.203125 L 82.546875 0 L 64.78125 0 L 64.78125 -45.21875 L 9.859375 -115.09375 L 33.703125 -115.09375 L 73.984375 -61.65625 L 112.46875 -115.09375 Z M 134.171875 -115.09375 "/></g></g></g></g></g><path stroke-linecap="round" transform="matrix(0.75, 0, 0, 0.75, 291.95907, 821.977589)" fill="none" stroke-linejoin="miter" d="M 6.002491 5.998632 L 254.721262 5.998632 " stroke="#70020f" stroke-width="12" stroke-opacity="1" stroke-miterlimit="4"/><path stroke-linecap="round" transform="matrix(0.75, 0, 0, 0.75, 1042.301656, 821.977589)" fill="none" stroke-linejoin="miter" d="M 5.998835 5.998632 L 236.165521 5.998632 " stroke="#70020f" stroke-width="12" stroke-opacity="1" stroke-miterlimit="4"/><g fill="#70020f" fill-opacity="1"><g transform="translate(589.416313, 848.227635)"><g><path d="M 17.4375 -19.984375 L 30.46875 -19.984375 L 24 -40.5625 L 23.8125 -40.5625 Z M 32.625 -51.53125 L 32.625 -50.15625 C 31.84375 -50.09375 31.300781 -49.914062 31 -49.625 C 30.707031 -49.332031 30.5625 -48.957031 30.5625 -48.5 C 30.5625 -48.238281 30.609375 -47.941406 30.703125 -47.609375 C 30.804688 -47.285156 31.054688 -46.535156 31.453125 -45.359375 L 45.65625 -4.015625 C 45.976562 -3.035156 46.269531 -2.378906 46.53125 -2.046875 C 46.789062 -1.722656 47.21875 -1.5 47.8125 -1.375 L 47.8125 0 L 34.484375 0 L 34.484375 -1.375 C 35.660156 -1.570312 36.25 -1.929688 36.25 -2.453125 C 36.25 -2.835938 36.085938 -3.488281 35.765625 -4.40625 L 32.71875 -13.125 L 15.09375 -13.125 L 12.34375 -5 C 12.082031 -4.40625 11.953125 -3.816406 11.953125 -3.234375 C 11.953125 -2.773438 12.097656 -2.363281 12.390625 -2 C 12.679688 -1.644531 13.253906 -1.4375 14.109375 -1.375 L 14.109375 0 L 1.171875 0 L 1.171875 -1.375 C 1.828125 -1.4375 2.316406 -1.8125 2.640625 -2.5 C 2.972656 -3.1875 3.332031 -4.082031 3.71875 -5.1875 L 17.4375 -45.359375 C 17.695312 -46.078125 17.925781 -46.757812 18.125 -47.40625 C 18.320312 -48.0625 18.421875 -48.585938 18.421875 -48.984375 C 18.421875 -49.566406 17.703125 -49.957031 16.265625 -50.15625 L 16.265625 -51.53125 Z M 32.625 -51.53125 "/></g></g></g><g fill="#70020f" fill-opacity="1"><g transform="translate(649.171096, 848.227635)"><g><path d="M 2.15625 -44.875 L 3.53125 -44.875 C 3.914062 -43.695312 4.765625 -43.109375 6.078125 -43.109375 L 31.9375 -43.109375 C 33.238281 -43.109375 34.085938 -43.695312 34.484375 -44.875 L 35.859375 -44.875 L 35.859375 -34.296875 L 34.484375 -34.296875 C 34.160156 -35.597656 33.28125 -36.25 31.84375 -36.25 L 23.3125 -36.25 L 23.3125 -3.921875 C 23.3125 -3.140625 23.457031 -2.519531 23.75 -2.0625 C 24.050781 -1.601562 24.363281 -1.375 24.6875 -1.375 L 24.6875 0 L 13.125 0 L 13.125 -1.375 C 14.175781 -1.375 14.703125 -2.222656 14.703125 -3.921875 L 14.703125 -36.25 L 6.078125 -36.25 C 4.765625 -36.25 3.914062 -35.660156 3.53125 -34.484375 L 2.15625 -34.484375 Z M 2.15625 -44.875 "/></g></g></g><g fill="#70020f" fill-opacity="1"><g transform="translate(698.052653, 848.227635)"><g><path d="M 38.40625 -33.703125 L 37.03125 -33.703125 C 36.90625 -34.679688 36.628906 -35.347656 36.203125 -35.703125 C 35.773438 -36.066406 35.203125 -36.25 34.484375 -36.25 L 16.265625 -36.25 L 16.265625 -25.671875 L 27.234375 -25.671875 C 28.015625 -25.671875 28.601562 -25.800781 29 -26.0625 C 29.394531 -26.320312 29.65625 -26.910156 29.78125 -27.828125 L 31.15625 -27.828125 L 31.15625 -16.65625 L 29.78125 -16.65625 C 29.65625 -17.570312 29.378906 -18.160156 28.953125 -18.421875 C 28.523438 -18.679688 27.953125 -18.8125 27.234375 -18.8125 L 16.265625 -18.8125 L 16.265625 -6.859375 L 34.578125 -6.859375 C 35.171875 -6.859375 35.695312 -7.019531 36.15625 -7.34375 C 36.613281 -7.675781 36.90625 -8.332031 37.03125 -9.3125 L 38.40625 -9.3125 L 38.40625 1.765625 L 37.03125 1.765625 C 36.832031 0.984375 36.503906 0.492188 36.046875 0.296875 C 35.585938 0.0976562 35.003906 0 34.296875 0 L 5.875 0 L 5.875 -1.375 C 7.050781 -1.375 7.640625 -2.222656 7.640625 -3.921875 L 7.640625 -39.28125 C 7.640625 -40.914062 7.050781 -41.734375 5.875 -41.734375 L 5.875 -43.109375 L 34.390625 -43.109375 C 35.109375 -43.109375 35.675781 -43.222656 36.09375 -43.453125 C 36.519531 -43.679688 36.832031 -44.15625 37.03125 -44.875 L 38.40625 -44.875 Z M 38.40625 -33.703125 "/></g></g></g><g fill="#70020f" fill-opacity="1"><g transform="translate(752.321847, 848.227635)"><g><path d="M 17.921875 -43.109375 L 17.921875 -41.734375 C 16.421875 -41.734375 15.671875 -40.882812 15.671875 -39.1875 L 15.671875 -6.859375 L 32.8125 -6.859375 C 33.53125 -6.859375 34.101562 -7.035156 34.53125 -7.390625 C 34.957031 -7.753906 35.234375 -8.394531 35.359375 -9.3125 L 36.734375 -9.3125 L 36.734375 1.765625 L 35.359375 1.765625 C 35.171875 1.046875 34.863281 0.570312 34.4375 0.34375 C 34.007812 0.113281 33.4375 0 32.71875 0 L 4.5 0 L 4.5 -1.375 C 6.195312 -1.375 7.046875 -2.222656 7.046875 -3.921875 L 7.046875 -39.1875 C 7.046875 -40.882812 6.195312 -41.734375 4.5 -41.734375 L 4.5 -43.109375 Z M 17.921875 -43.109375 "/></g></g></g><g fill="#70020f" fill-opacity="1"><g transform="translate(801.203404, 848.227635)"><g><path d="M 19.984375 -43.109375 L 19.984375 -41.734375 C 18.609375 -41.734375 17.921875 -40.882812 17.921875 -39.1875 L 17.921875 -3.828125 C 17.921875 -2.191406 18.609375 -1.375 19.984375 -1.375 L 19.984375 0 L 7.25 0 L 7.25 -1.375 C 8.625 -1.375 9.3125 -2.222656 9.3125 -3.921875 L 9.3125 -39.1875 C 9.3125 -40.882812 8.625 -41.734375 7.25 -41.734375 L 7.25 -43.109375 Z M 19.984375 -43.109375 "/></g></g></g><g fill="#70020f" fill-opacity="1"><g transform="translate(839.211747, 848.227635)"><g><path d="M 38.40625 -33.703125 L 37.03125 -33.703125 C 36.90625 -34.679688 36.628906 -35.347656 36.203125 -35.703125 C 35.773438 -36.066406 35.203125 -36.25 34.484375 -36.25 L 16.265625 -36.25 L 16.265625 -25.671875 L 27.234375 -25.671875 C 28.015625 -25.671875 28.601562 -25.800781 29 -26.0625 C 29.394531 -26.320312 29.65625 -26.910156 29.78125 -27.828125 L 31.15625 -27.828125 L 31.15625 -16.65625 L 29.78125 -16.65625 C 29.65625 -17.570312 29.378906 -18.160156 28.953125 -18.421875 C 28.523438 -18.679688 27.953125 -18.8125 27.234375 -18.8125 L 16.265625 -18.8125 L 16.265625 -6.859375 L 34.578125 -6.859375 C 35.171875 -6.859375 35.695312 -7.019531 36.15625 -7.34375 C 36.613281 -7.675781 36.90625 -8.332031 37.03125 -9.3125 L 38.40625 -9.3125 L 38.40625 1.765625 L 37.03125 1.765625 C 36.832031 0.984375 36.503906 0.492188 36.046875 0.296875 C 35.585938 0.0976562 35.003906 0 34.296875 0 L 5.875 0 L 5.875 -1.375 C 7.050781 -1.375 7.640625 -2.222656 7.640625 -3.921875 L 7.640625 -39.28125 C 7.640625 -40.914062 7.050781 -41.734375 5.875 -41.734375 L 5.875 -43.109375 L 34.390625 -43.109375 C 35.109375 -43.109375 35.675781 -43.222656 36.09375 -43.453125 C 36.519531 -43.679688 36.832031 -44.15625 37.03125 -44.875 L 38.40625 -44.875 Z M 38.40625 -33.703125 "/></g></g></g><g fill="#70020f" fill-opacity="1"><g transform="translate(893.48093, 848.227635)"><g><path d="M 24.984375 -23.515625 C 28.503906 -23.515625 31.03125 -23.988281 32.5625 -24.9375 C 34.101562 -25.882812 34.875 -27.597656 34.875 -30.078125 C 34.875 -32.359375 34.1875 -34.019531 32.8125 -35.0625 C 31.445312 -36.113281 28.898438 -36.640625 25.171875 -36.640625 L 16.265625 -36.640625 L 16.265625 -23.515625 Z M 28.3125 -43.109375 C 33.082031 -43.109375 36.738281 -41.960938 39.28125 -39.671875 C 41.832031 -37.390625 43.109375 -34.125 43.109375 -29.875 C 43.109375 -28.375 42.8125 -26.9375 42.21875 -25.5625 C 41.632812 -24.195312 40.851562 -22.972656 39.875 -21.890625 C 38.894531 -20.816406 37.75 -19.921875 36.4375 -19.203125 C 35.132812 -18.484375 33.765625 -18.054688 32.328125 -17.921875 L 41.046875 -3.328125 C 41.503906 -2.609375 41.878906 -2.132812 42.171875 -1.90625 C 42.460938 -1.675781 42.773438 -1.5 43.109375 -1.375 L 43.109375 0 L 31.34375 0 L 31.34375 -1.375 C 32.0625 -1.375 32.421875 -1.632812 32.421875 -2.15625 C 32.421875 -2.414062 32.375 -2.707031 32.28125 -3.03125 C 32.1875 -3.363281 31.972656 -3.789062 31.640625 -4.3125 L 24 -17.046875 L 16.265625 -17.046875 L 16.265625 -3.921875 C 16.265625 -3.203125 16.410156 -2.597656 16.703125 -2.109375 C 16.992188 -1.617188 17.4375 -1.375 18.03125 -1.375 L 18.03125 0 L 5.875 0 L 5.875 -1.375 C 6.46875 -1.375 6.910156 -1.617188 7.203125 -2.109375 C 7.492188 -2.597656 7.640625 -3.203125 7.640625 -3.921875 L 7.640625 -39.1875 C 7.640625 -40.882812 7.050781 -41.734375 5.875 -41.734375 L 5.875 -43.109375 Z M 28.3125 -43.109375 "/></g></g></g></svg>